<?xml version="1.0" encoding="UTF-8" standalone="no"?>
<!-- Created with Inkscape (http://www.inkscape.org/) -->

<svg
   width="20.494738mm"
   height="30mm"
   viewBox="0 0 20.494738 30"
   version="1.1"
   id="svg5"
   inkscape:version="1.1 (c4e8f9ed74, 2021-05-24)"
   sodipodi:docname="action_stand.svg"
   xmlns:inkscape="http://www.inkscape.org/namespaces/inkscape"
   xmlns:sodipodi="http://sodipodi.sourceforge.net/DTD/sodipodi-0.dtd"
   xmlns="http://www.w3.org/2000/svg"
   xmlns:svg="http://www.w3.org/2000/svg">
  <sodipodi:namedview
     id="namedview7"
     pagecolor="#ffffff"
     bordercolor="#666666"
     borderopacity="1.0"
     inkscape:pageshadow="2"
     inkscape:pageopacity="0.0"
     inkscape:pagecheckerboard="0"
     inkscape:document-units="mm"
     showgrid="false"
     inkscape:zoom="3.7946873"
     inkscape:cx="134.26666"
     inkscape:cy="53.495843"
     inkscape:window-width="1920"
     inkscape:window-height="1138"
     inkscape:window-x="1920"
     inkscape:window-y="33"
     inkscape:window-maximized="1"
     inkscape:current-layer="g573"
     fit-margin-top="0"
     fit-margin-left="0"
     fit-margin-right="0"
     fit-margin-bottom="0" />
  <defs
     id="defs2" />
  <g
     inkscape:label="Layer 1"
     inkscape:groupmode="layer"
     id="layer1"
     transform="translate(-17.665792,-20.052122)">
    <rect
       style="fill:#f9f9f9;stroke:#232627;stroke-width:0.174801"
       id="rect231"
       width="20.319937"
       height="29.825199"
       x="17.753193"
       y="20.139523" />
    <g
       id="g565"
       transform="matrix(0.0217767,0,0,0.02578966,40.787159,46.92268)">
      <path
         d="m 5273.1,2400.1 v -2 c 0,-2.8 -5,-4 -9.7,-4 -4.7,0 -9.7,1.3 -9.7,4 v 2 c 0,1.8 0.7,3.6 2,4.9 l 5,4.9 c 0.3,0.3 0.4,0.6 0.4,1 v 6.4 c 0,0.4 0.2,0.7 0.6,0.8 l 2.9,0.9 c 0.5,0.1 1,-0.2 1,-0.8 v -7.2 c 0,-0.4 0.2,-0.7 0.4,-1 l 5.1,-5 c 1.3,-1.3 2,-3.1 2,-4.9 z m -9.7,-0.1 c -4.8,0 -7.4,-1.3 -7.5,-1.8 v 0 c 0.1,-0.5 2.7,-1.8 7.5,-1.8 4.8,0 7.3,1.3 7.5,1.8 -0.2,0.5 -2.7,1.8 -7.5,1.8 z"
         id="path557" />
      <path
         d="m 5268.4,2410.3 c -0.6,0 -1,0.4 -1,1 0,0.6 0.4,1 1,1 h 4.3 c 0.6,0 1,-0.4 1,-1 0,-0.6 -0.4,-1 -1,-1 z"
         id="path559" />
      <path
         d="m 5272.7,2413.7 h -4.3 c -0.6,0 -1,0.4 -1,1 0,0.6 0.4,1 1,1 h 4.3 c 0.6,0 1,-0.4 1,-1 0,-0.6 -0.4,-1 -1,-1 z"
         id="path561" />
      <path
         d="m 5272.7,2417 h -4.3 c -0.6,0 -1,0.4 -1,1 0,0.6 0.4,1 1,1 h 4.3 c 0.6,0 1,-0.4 1,-1 0,-0.5 -0.4,-1 -1,-1 z"
         id="path563" />
    </g>
    <g
       id="g573"
       transform="matrix(0.0217767,0,0,0.02578966,35.078424,46.020676)">
      <g
         id="g1170"
         transform="matrix(5.8979672,0,0,4.9802232,-615.29645,-985.41822)">
        <circle
           transform="matrix(0.2268,-0.9739,0.9739,0.2268,14.3995,63.138)"
           cx="46.964001"
           cy="22.5"
           id="ellipse1166"
           r="22.495001" />
        <path
           d="m 8.561,147.517 c 0.147,0 0.293,-0.004 0.441,-0.012 4.41,-0.24 7.793,-4.012 7.554,-8.424 -0.383,-7.023 -0.555,-13.389 -0.555,-19.16 -0.029,-18.12 1.739,-30.294 3.918,-38.207 v 27.167 18.939 86 c 0,6.829 5.535,12.363 12.363,12.363 6.828,0 12.363,-5.534 12.363,-12.363 v -78.273 h 4.637 v 78.273 c 0,6.829 5.535,12.363 12.363,12.363 6.828,0 12.363,-5.534 12.363,-12.363 v -86 -18.939 -27.167 c 2.195,7.908 3.922,20.098 3.916,38.209 0,5.77 -0.172,12.138 -0.553,19.16 -0.238,4.412 3.143,8.182 7.556,8.422 0.146,0.008 0.293,0.012 0.438,0.012 4.221,0 7.754,-3.304 7.984,-7.567 0.395,-7.286 0.575,-13.939 0.575,-20.026 C 93.88,90.268 89.746,74.023 84.077,64.162 81.237,59.264 77.853,56.008 74.543,54.125 72.101,52.721 69.792,52.118 68.022,51.904 67.462,51.774 66.881,51.7 66.282,51.7 H 27.646 c -0.599,0 -1.179,0.074 -1.738,0.203 -1.77,0.215 -4.081,0.816 -6.525,2.222 C 14.366,56.978 9.413,62.786 5.921,72.863 2.392,82.996 0.012,97.668 0,119.921 c 0,6.089 0.182,12.744 0.579,20.03 0.232,4.263 3.763,7.566 7.982,7.566 z"
           id="path1168" />
      </g>
    </g>
  </g>
</svg>
