<?xml version="1.0" encoding="UTF-8" standalone="no"?>
<!-- Created with Inkscape (http://www.inkscape.org/) -->

<svg
   width="20.494738mm"
   height="30mm"
   viewBox="0 0 20.494738 30"
   version="1.1"
   id="svg5"
   inkscape:version="1.1 (c4e8f9ed74, 2021-05-24)"
   sodipodi:docname="action_jog.svg"
   xmlns:inkscape="http://www.inkscape.org/namespaces/inkscape"
   xmlns:sodipodi="http://sodipodi.sourceforge.net/DTD/sodipodi-0.dtd"
   xmlns="http://www.w3.org/2000/svg"
   xmlns:svg="http://www.w3.org/2000/svg">
  <sodipodi:namedview
     id="namedview7"
     pagecolor="#ffffff"
     bordercolor="#666666"
     borderopacity="1.0"
     inkscape:pageshadow="2"
     inkscape:pageopacity="0.0"
     inkscape:pagecheckerboard="0"
     inkscape:document-units="mm"
     showgrid="false"
     inkscape:zoom="3.7946873"
     inkscape:cx="134.26666"
     inkscape:cy="53.495843"
     inkscape:window-width="1920"
     inkscape:window-height="1138"
     inkscape:window-x="1920"
     inkscape:window-y="33"
     inkscape:window-maximized="1"
     inkscape:current-layer="g573"
     fit-margin-top="0"
     fit-margin-left="0"
     fit-margin-right="0"
     fit-margin-bottom="0" />
  <defs
     id="defs2" />
  <g
     inkscape:label="Layer 1"
     inkscape:groupmode="layer"
     id="layer1"
     transform="translate(-17.665792,-20.052122)">
    <rect
       style="fill:#f9f9f9;stroke:#232627;stroke-width:0.174801"
       id="rect231"
       width="20.319937"
       height="29.825199"
       x="17.753193"
       y="20.139523" />
    <g
       id="g565"
       transform="matrix(0.0217767,0,0,0.02578966,40.787159,46.92268)">
      <path
         d="m 5273.1,2400.1 v -2 c 0,-2.8 -5,-4 -9.7,-4 -4.7,0 -9.7,1.3 -9.7,4 v 2 c 0,1.8 0.7,3.6 2,4.9 l 5,4.9 c 0.3,0.3 0.4,0.6 0.4,1 v 6.4 c 0,0.4 0.2,0.7 0.6,0.8 l 2.9,0.9 c 0.5,0.1 1,-0.2 1,-0.8 v -7.2 c 0,-0.4 0.2,-0.7 0.4,-1 l 5.1,-5 c 1.3,-1.3 2,-3.1 2,-4.9 z m -9.7,-0.1 c -4.8,0 -7.4,-1.3 -7.5,-1.8 v 0 c 0.1,-0.5 2.7,-1.8 7.5,-1.8 4.8,0 7.3,1.3 7.5,1.8 -0.2,0.5 -2.7,1.8 -7.5,1.8 z"
         id="path557" />
      <path
         d="m 5268.4,2410.3 c -0.6,0 -1,0.4 -1,1 0,0.6 0.4,1 1,1 h 4.3 c 0.6,0 1,-0.4 1,-1 0,-0.6 -0.4,-1 -1,-1 z"
         id="path559" />
      <path
         d="m 5272.7,2413.7 h -4.3 c -0.6,0 -1,0.4 -1,1 0,0.6 0.4,1 1,1 h 4.3 c 0.6,0 1,-0.4 1,-1 0,-0.6 -0.4,-1 -1,-1 z"
         id="path561" />
      <path
         d="m 5272.7,2417 h -4.3 c -0.6,0 -1,0.4 -1,1 0,0.6 0.4,1 1,1 h 4.3 c 0.6,0 1,-0.4 1,-1 0,-0.5 -0.4,-1 -1,-1 z"
         id="path563" />
    </g>
    <g
       id="g573"
       transform="matrix(0.0217767,0,0,0.02578966,35.078424,46.020676)">
      <g
         id="g1053"
         transform="matrix(11.811503,0,0,11.811503,-922.4542,-1015.0461)">
        <path
           d="m 32.6,72.5 -12.5,4 c -3.2,1 -4.9,4.4 -3.9,7.6 0.8,2.6 3.2,4.2 5.7,4.2 0.6,0 1.2,-0.1 1.9,-0.3 l 15.4,-5 c 1.8,-0.6 3.3,-2 3.9,-3.8 L 45.2,73 35.8,63 Z"
           id="path567" />
        <circle
           transform="matrix(0.9712,-0.2381,0.2381,0.9712,-1.3118,15.2888)"
           cx="62.599998"
           cy="13.1"
           id="ellipse569"
           r="10.6" />
        <path
           d="m 84,44.2 c -0.4,-2.8 -2.9,-4.7 -5.6,-4.3 l -7,0.9 L 67.6,34 C 66,31.1 63.3,28.8 60.1,27.7 L 52.4,25 c -2.9,-1 -6,-1 -8.9,-0.1 L 32,28.7 c -1.4,0.4 -2.5,1.5 -3,2.8 l -4.9,11.2 c -1.1,2.5 0.1,5.5 2.6,6.6 2.5,1.1 5.5,-0.1 6.6,-2.6 l 4,-9.2 5.7,-1.9 -4,17.2 c -0.5,2 0.1,4 1.5,5.5 l 14.3,15.3 -2,17.1 c -0.4,3.3 2,6.3 5.3,6.7 0.2,0 0.5,0 0.7,0 3,0 5.6,-2.3 6,-5.3 l 2.3,-19.9 c 0.2,-1.8 -0.4,-3.5 -1.6,-4.8 L 55.9,57.2 c 0,-0.1 0,-0.1 0.1,-0.2 l 5.2,-14.1 3.2,5.7 c 0.9,1.6 2.6,2.6 4.4,2.6 0.2,0 0.4,0 0.7,0 l 10.3,-1.4 c 2.6,-0.4 4.6,-2.9 4.2,-5.6 z"
           id="path571" />
      </g>
    </g>
  </g>
</svg>
